# xmcd
#
# Track frame offsets:
#	150
#	24682
#	43881
#	59480
#	75829
#	95679
#	119078
#	134892
#	154530
#	181604
#	200203
#	215776
#	247350
#	279666
#	310940
#	340139
#
# Disc length: 4744 seconds
#
# Revision: 2
# Processed by: cddbd v1.5.1PL0 Copyright (c) Steve Scherf et al.
# Submitted via: EasyCDDAExtractor 8.0.2.1
#
DISCID=fe128610
DTITLE=Fragma - Embrace
DYEAR=2003
DGENRE=Eurotrance 
TTITLE0=Time And Time Again
TTITLE1=Embrace Me
TTITLE2=Say That You Are Here
TTITLE3=How Do You Feel
TTITLE4=Take This World For Real
TTITLE5=Free Your Mind
TTITLE6=Who Needs A Reason
TTITLE7=Only You
TTITLE8=Why
TTITLE9=Just Like A Teardrop
TTITLE10=Maybe It's You
TTITLE11=Risk My Soul
TTITLE12=Say That You Are Here (Riva Vocal Version)
TTITLE13=Embrace Me (Wippenberg Remix)
TTITLE14=Time And Time Again (Extended Mix)
TTITLE15=Embrace Me (Duderstadt Radio Remix)
EXTD=
EXTT0=
EXTT1=
EXTT2=
EXTT3=
EXTT4=
EXTT5=
EXTT6=
EXTT7=
EXTT8=
EXTT9=
EXTT10=
EXTT11=
EXTT12=
EXTT13=
EXTT14=
EXTT15=
PLAYORDER=
